<svg width="1024" height="1024" viewBox="0 0 1024 1024" fill="none" xmlns="http://www.w3.org/2000/svg">
<g clip-path="url(#clip0_1_2)">
<path d="M0 512C0 127.99 127.99 0 512 0C896.01 0 1024 127.99 1024 512C1024 896.01 896.01 1024 512 1024C127.99 1024 0 895.99 0 512Z" fill="#4ADE80"/>
<path d="M53.248 512C53.248 167.927 167.927 53.248 512 53.248C856.073 53.248 970.752 167.927 970.752 512C970.752 856.073 856.073 970.752 512 970.752C167.927 970.752 53.248 856.055 53.248 512Z" fill="#081A0F"/>
<mask id="path-3-outside-1_1_2" maskUnits="userSpaceOnUse" x="342.304" y="195" width="356" height="639" fill="black">
<rect fill="white" x="342.304" y="195" width="356" height="639"/>
<path d="M553.878 772.299C517.158 772.299 487.83 763.477 465.894 745.832C443.957 728.188 427.982 703.39 417.967 671.439C408.43 639.488 403.661 602.292 403.661 559.85C403.661 534.098 404.853 510.97 407.237 490.464C410.099 469.958 413.198 450.406 416.537 431.808C419.875 413.21 422.498 394.611 424.405 376.013C426.79 353.6 428.22 335.478 428.697 321.649C429.651 307.343 430.605 294.228 431.558 282.306C432.512 275.63 434.896 269.669 438.711 264.424C442.527 259.178 448.964 256.555 458.025 256.555C473.285 256.555 483.3 265.616 488.068 283.737C492.837 301.382 493.314 328.325 489.499 364.568C487.115 383.643 484.492 400.572 481.631 415.356C479.246 430.139 476.862 444.684 474.477 458.99C472.57 472.819 470.662 487.603 468.755 503.34C467.324 518.6 466.609 536.483 466.609 556.988C466.609 595.139 469.947 625.421 476.623 647.834C483.3 670.247 493.314 686.223 506.667 695.76C520.019 705.298 536.472 710.066 556.024 710.066C567.946 710.066 577.006 708.874 583.206 706.49C589.405 704.106 594.651 701.96 598.943 700.052C603.235 697.668 608.48 696.475 614.68 696.475C621.356 696.475 626.602 698.621 630.417 702.913C634.232 707.205 636.139 712.928 636.139 720.081C636.139 733.434 629.224 745.594 615.395 756.562C601.565 767.053 581.06 772.299 553.878 772.299ZM467.324 494.756C454.925 500.478 445.149 500.955 437.996 496.186C431.32 491.418 427.982 484.503 427.982 475.442C427.982 465.428 430.366 456.606 435.135 448.976C440.381 441.345 452.779 433.954 472.331 426.801C489.499 420.124 508.813 414.879 530.272 411.064C551.732 406.772 571.761 404.626 590.359 404.626C604.188 404.626 614.68 407.726 621.833 413.925C628.986 419.647 632.563 427.516 632.563 437.53C632.563 445.637 630.178 451.598 625.409 455.413C620.641 459.228 613.487 461.613 603.95 462.567C583.921 463.997 566.038 466.143 550.301 469.004C535.041 471.866 520.735 475.442 507.382 479.734C494.506 484.026 481.154 489.033 467.324 494.756Z"/>
</mask>
<path d="M553.878 772.299C517.158 772.299 487.83 763.477 465.894 745.832C443.957 728.188 427.982 703.39 417.967 671.439C408.43 639.488 403.661 602.292 403.661 559.85C403.661 534.098 404.853 510.97 407.237 490.464C410.099 469.958 413.198 450.406 416.537 431.808C419.875 413.21 422.498 394.611 424.405 376.013C426.79 353.6 428.22 335.478 428.697 321.649C429.651 307.343 430.605 294.228 431.558 282.306C432.512 275.63 434.896 269.669 438.711 264.424C442.527 259.178 448.964 256.555 458.025 256.555C473.285 256.555 483.3 265.616 488.068 283.737C492.837 301.382 493.314 328.325 489.499 364.568C487.115 383.643 484.492 400.572 481.631 415.356C479.246 430.139 476.862 444.684 474.477 458.99C472.57 472.819 470.662 487.603 468.755 503.34C467.324 518.6 466.609 536.483 466.609 556.988C466.609 595.139 469.947 625.421 476.623 647.834C483.3 670.247 493.314 686.223 506.667 695.76C520.019 705.298 536.472 710.066 556.024 710.066C567.946 710.066 577.006 708.874 583.206 706.49C589.405 704.106 594.651 701.96 598.943 700.052C603.235 697.668 608.48 696.475 614.68 696.475C621.356 696.475 626.602 698.621 630.417 702.913C634.232 707.205 636.139 712.928 636.139 720.081C636.139 733.434 629.224 745.594 615.395 756.562C601.565 767.053 581.06 772.299 553.878 772.299ZM467.324 494.756C454.925 500.478 445.149 500.955 437.996 496.186C431.32 491.418 427.982 484.503 427.982 475.442C427.982 465.428 430.366 456.606 435.135 448.976C440.381 441.345 452.779 433.954 472.331 426.801C489.499 420.124 508.813 414.879 530.272 411.064C551.732 406.772 571.761 404.626 590.359 404.626C604.188 404.626 614.68 407.726 621.833 413.925C628.986 419.647 632.563 427.516 632.563 437.53C632.563 445.637 630.178 451.598 625.409 455.413C620.641 459.228 613.487 461.613 603.95 462.567C583.921 463.997 566.038 466.143 550.301 469.004C535.041 471.866 520.735 475.442 507.382 479.734C494.506 484.026 481.154 489.033 467.324 494.756Z" fill="#081A0F"/>
<path d="M465.894 745.832L427.465 793.608L427.465 793.608L465.894 745.832ZM417.967 671.439L359.216 688.977L359.336 689.378L359.461 689.777L417.967 671.439ZM407.237 490.464L346.513 481.991L346.416 482.685L346.335 483.382L407.237 490.464ZM424.405 376.013L363.436 369.527L363.424 369.642L363.412 369.757L424.405 376.013ZM428.697 321.649L367.52 317.57L367.454 318.552L367.42 319.536L428.697 321.649ZM431.558 282.306L370.862 273.635L370.592 275.52L370.441 277.417L431.558 282.306ZM438.711 264.424L488.297 300.486L488.297 300.486L438.711 264.424ZM488.068 283.737L428.774 299.341L428.826 299.538L428.879 299.734L488.068 283.737ZM489.499 364.568L550.339 372.173L550.413 371.58L550.475 370.987L489.499 364.568ZM481.631 415.356L421.435 403.705L421.253 404.646L421.1 405.593L481.631 415.356ZM474.477 458.99L413.999 448.91L413.857 449.759L413.739 450.612L474.477 458.99ZM468.755 503.34L407.887 495.962L407.787 496.788L407.71 497.617L468.755 503.34ZM476.623 647.834L535.385 630.33L535.385 630.33L476.623 647.834ZM506.667 695.76L542.304 645.868L542.304 645.868L506.667 695.76ZM583.206 706.49L605.216 763.716L605.216 763.716L583.206 706.49ZM598.943 700.052L623.844 756.081L626.336 754.973L628.719 753.649L598.943 700.052ZM630.417 702.913L584.591 743.647L584.591 743.647L630.417 702.913ZM615.395 756.562L652.452 805.41L652.977 805.011L653.494 804.601L615.395 756.562ZM467.324 494.756L443.881 438.102L442.746 438.571L441.63 439.086L467.324 494.756ZM437.996 496.186L402.359 546.079L403.163 546.654L403.986 547.202L437.996 496.186ZM435.135 448.976L384.61 414.24L383.852 415.344L383.142 416.48L435.135 448.976ZM472.331 426.801L493.397 484.381L493.978 484.169L494.554 483.945L472.331 426.801ZM530.272 411.064L541.004 471.43L541.652 471.315L542.297 471.186L530.272 411.064ZM621.833 413.925L581.677 460.258L582.589 461.049L583.531 461.802L621.833 413.925ZM625.409 455.413L663.711 503.291L663.711 503.291L625.409 455.413ZM603.95 462.567L608.318 523.724L609.186 523.662L610.051 523.575L603.95 462.567ZM550.301 469.004L539.333 408.68L539.167 408.711L539.002 408.742L550.301 469.004ZM507.382 479.734L488.62 421.363L488.306 421.463L487.993 421.568L507.382 479.734ZM553.878 710.986C526.842 710.986 512.435 704.582 504.322 698.057L427.465 793.608C463.225 822.372 507.474 833.612 553.878 833.612V710.986ZM504.322 698.057C493.518 689.366 483.557 675.702 476.474 653.101L359.461 689.777C372.406 731.078 394.397 767.01 427.465 793.608L504.322 698.057ZM476.718 653.902C469.269 628.946 464.974 597.888 464.974 559.85H342.348C342.348 606.696 347.59 650.03 359.216 688.977L476.718 653.902ZM464.974 559.85C464.974 535.914 466.086 515.21 468.14 497.546L346.335 483.382C343.62 506.729 342.348 532.283 342.348 559.85H464.974ZM467.962 498.937C470.724 479.146 473.7 460.384 476.885 442.64L356.188 420.976C352.697 440.428 349.474 460.77 346.513 481.991L467.962 498.937ZM476.885 442.64C480.493 422.541 483.332 402.416 485.398 382.269L363.412 369.757C361.664 386.806 359.257 403.878 356.188 420.976L476.885 442.64ZM485.374 382.499C487.83 359.412 489.425 339.668 489.974 323.762L367.42 319.536C367.015 331.289 365.749 347.788 363.436 369.527L485.374 382.499ZM489.874 325.727C490.813 311.64 491.748 298.801 492.676 287.196L370.441 277.417C369.462 289.656 368.488 303.045 367.52 317.57L489.874 325.727ZM492.255 290.977C492.076 292.229 491.7 293.824 490.99 295.6C490.275 297.385 489.347 299.042 488.297 300.486L389.126 228.361C379.191 242.021 373.171 257.467 370.862 273.635L492.255 290.977ZM488.297 300.486C483.004 307.765 476.1 312.629 469.534 315.304C463.549 317.742 459.136 317.868 458.025 317.868V195.242C437.694 195.242 408.637 201.532 389.126 228.361L488.297 300.486ZM458.025 317.868C455.74 317.868 452.116 317.519 447.796 315.97C443.358 314.379 439.253 311.9 435.845 308.816C429.229 302.831 428.286 297.487 428.774 299.341L547.363 268.133C543.082 251.866 534.747 232.931 518.117 217.885C500.356 201.816 478.736 195.242 458.025 195.242V317.868ZM428.879 299.734C430.557 305.942 432.174 323.466 428.523 358.149L550.475 370.987C554.454 333.185 555.118 296.821 547.258 267.74L428.879 299.734ZM428.66 356.963C426.401 375.033 423.977 390.569 421.435 403.705L541.826 427.006C545.006 410.576 547.828 392.254 550.339 372.173L428.66 356.963ZM421.1 405.593C418.732 420.274 416.365 434.713 413.999 448.91L534.956 469.07C537.359 454.655 539.76 440.004 542.161 425.119L421.1 405.593ZM413.739 450.612C411.78 464.816 409.83 479.935 407.887 495.962L529.622 510.718C531.495 495.27 533.359 480.823 535.215 467.368L413.739 450.612ZM407.71 497.617C406.053 515.29 405.296 535.165 405.296 556.988H527.922C527.922 537.8 528.596 521.909 529.8 509.063L407.71 497.617ZM405.296 556.988C405.296 597.832 408.768 634.808 417.862 665.337L535.385 630.33C531.126 616.033 527.922 592.445 527.922 556.988H405.296ZM417.862 665.337C426.819 695.408 442.728 725.438 471.029 745.653L542.304 645.868C543.9 647.007 539.78 645.086 535.385 630.33L417.862 665.337ZM471.029 745.653C496.651 763.954 526.201 771.379 556.024 771.379V648.754C546.742 648.754 543.388 646.642 542.304 645.868L471.029 745.653ZM556.024 771.379C570.463 771.379 588.482 770.152 605.216 763.716L561.196 649.264C562.674 648.695 563.68 648.441 564.029 648.359C564.392 648.274 564.334 648.308 563.762 648.383C562.54 648.544 560.066 648.754 556.024 648.754V771.379ZM605.216 763.716C612.026 761.097 618.3 758.545 623.844 756.081L574.041 644.024C571.002 645.374 566.784 647.114 561.196 649.264L605.216 763.716ZM628.719 753.649C621.811 757.487 616.213 757.788 614.68 757.788V635.163C600.747 635.163 584.658 637.849 569.166 646.455L628.719 753.649ZM614.68 757.788C611.45 757.788 606.34 757.26 600.406 754.833C594.251 752.315 588.815 748.399 584.591 743.647L676.243 662.179C658.858 642.622 635.731 635.163 614.68 635.163V757.788ZM584.591 743.647C576.147 734.148 574.826 724.111 574.826 720.081H697.452C697.452 701.745 692.317 680.263 676.242 662.179L584.591 743.647ZM574.826 720.081C574.826 718.058 575.097 715.926 575.665 713.833C576.228 711.755 576.979 710.096 577.654 708.909C578.951 706.628 579.604 706.693 577.295 708.524L653.494 804.601C676.904 786.035 697.452 757.799 697.452 720.081H574.826ZM578.338 707.715C579.195 707.065 578.476 707.934 574.448 708.965C570.333 710.017 563.714 710.986 553.878 710.986V833.612C587.357 833.612 623.437 827.421 652.452 805.41L578.338 707.715ZM441.63 439.086C439.951 439.861 442.293 438.429 447.706 438.165C454.033 437.857 463.184 439.289 472.007 445.171L403.986 547.202C437.601 569.612 473.212 559.567 493.018 550.425L441.63 439.086ZM473.634 446.294C478.076 449.467 482.591 454.327 485.701 460.768C488.705 466.991 489.295 472.391 489.295 475.442H366.669C366.669 501.9 377.708 528.471 402.359 546.079L473.634 446.294ZM489.295 475.442C489.295 475.326 489.304 476.035 488.959 477.312C488.603 478.632 487.991 480.09 487.128 481.471L383.142 416.48C371.61 434.931 366.669 455.276 366.669 475.442H489.295ZM485.659 483.711C483.267 487.191 481.073 489.203 480.156 489.983C479.207 490.791 478.927 490.873 479.764 490.374C480.565 489.896 482.051 489.088 484.411 488.013C486.751 486.948 489.716 485.728 493.397 484.381L451.265 369.22C439.327 373.588 427.542 378.743 416.972 385.045C406.986 390.998 394.259 400.206 384.61 414.24L485.659 483.711ZM494.554 483.945C507.403 478.948 522.779 474.67 541.004 471.43L519.54 350.697C494.847 355.087 471.595 361.301 450.109 369.657L494.554 483.945ZM542.297 471.186C560.471 467.551 576.432 465.939 590.359 465.939V343.313C567.089 343.313 542.993 345.992 518.248 350.941L542.297 471.186ZM590.359 465.939C592.867 465.939 592.88 466.239 591.227 465.751C589.376 465.204 585.671 463.72 581.677 460.258L661.989 367.591C639.522 348.12 612.289 343.313 590.359 343.313V465.939ZM583.531 461.802C580.044 459.013 576.501 454.854 574.063 449.49C571.699 444.288 571.25 439.895 571.25 437.53H693.876C693.876 410.874 683.314 384.591 660.135 366.048L583.531 461.802ZM571.25 437.53C571.25 435.753 571.491 431.2 573.847 425.31C576.38 418.977 580.789 412.591 587.108 407.536L663.711 503.291C687.467 484.286 693.876 457.714 693.876 437.53H571.25ZM587.108 407.536C591.522 404.005 595.346 402.474 597.079 401.896C598.79 401.326 599.252 401.418 597.849 401.558L610.051 523.575C625.202 522.06 645.829 517.597 663.711 503.291L587.108 407.536ZM599.582 401.409C577.87 402.96 557.721 405.337 539.333 408.68L561.269 529.328C574.355 526.949 589.972 525.034 608.318 523.724L599.582 401.409ZM539.002 408.742C521.481 412.027 504.661 416.206 488.62 421.363L526.144 538.106C536.808 534.678 548.601 531.705 561.6 529.267L539.002 408.742ZM487.993 421.568C473.618 426.359 458.91 431.883 443.881 438.102L490.767 551.41C503.397 546.184 515.395 541.693 526.771 537.901L487.993 421.568Z" fill="#4ADE80" mask="url(#path-3-outside-1_1_2)"/>
</g>
<defs>
<clipPath id="clip0_1_2">
<rect width="1024" height="1024" fill="white"/>
</clipPath>
</defs>
</svg>
